<svg width="1920" height="13" viewBox="0 0 1920 13" fill="none" xmlns="http://www.w3.org/2000/svg">
<g filter="url(#filter0_i_721_170)">
<path d="M1 3.97802C59.13 3.97802 115.178 7.92707 173.257 7.92707C340.14 7.92707 508.271 8.35457 675.271 9.24343C738.822 9.58168 802.447 10.5598 866.102 10.5598C917.06 10.5598 968.312 14.2024 1019.02 9.9016C1058.64 6.54134 1098.33 4.3921 1138.1 1.93036C1173.99 -0.291455 1207.62 2.07886 1243.57 2.7348C1301.56 3.79309 1360.72 2.01647 1418.5 5.00185C1482.33 8.30024 1547.24 4.79907 1611.36 7.63455C1660.76 9.81871 1709.24 10.5598 1758.81 10.5598C1812.54 10.5598 1866.27 10.5598 1920 10.5598" stroke="black" stroke-opacity="0.2" stroke-width="2" stroke-linecap="round"/>
</g>
<defs>
<filter id="filter0_i_721_170" x="0" y="0.000244141" width="1921" height="16.9993" filterUnits="userSpaceOnUse" color-interpolation-filters="sRGB">
<feFlood flood-opacity="0" result="BackgroundImageFix"/>
<feBlend mode="normal" in="SourceGraphic" in2="BackgroundImageFix" result="shape"/>
<feColorMatrix in="SourceAlpha" type="matrix" values="0 0 0 0 0 0 0 0 0 0 0 0 0 0 0 0 0 0 127 0" result="hardAlpha"/>
<feOffset dy="4"/>
<feGaussianBlur stdDeviation="2"/>
<feComposite in2="hardAlpha" operator="arithmetic" k2="-1" k3="1"/>
<feColorMatrix type="matrix" values="0 0 0 0 0 0 0 0 0 0 0 0 0 0 0 0 0 0 0.25 0"/>
<feBlend mode="normal" in2="shape" result="effect1_innerShadow_721_170"/>
</filter>
</defs>
</svg>
