<svg width="516" height="316" viewBox="0 0 516 316" fill="none" xmlns="http://www.w3.org/2000/svg">
<path d="M512 314.639C470.07 314.639 428.14 314.639 386.209 314.639C333.877 314.639 299.473 313.069 247.5 309.32C227.493 307.876 187.893 310.922 167.863 309.32C157.257 308.471 144.738 306.364 134.098 306.364C105.36 306.364 76.3829 304 47.2362 304C33.7302 304 -6.78768 304 6.71828 304" stroke="black" stroke-width="2" stroke-linecap="round"/>
<path d="M1.85278 22C2.5665 115.731 3.29219 211.036 4.00006 304" stroke="black" stroke-width="2" stroke-linecap="round"/>
<path d="M2 24.4667C2 4.52672 21.7701 5.26667 40.1308 5.26667C49.4607 5.26667 59.3992 1 68.729 1C78.2617 1 87.7944 1 97.3271 1C151.427 1 203.462 3.13333 257 3.13333C307.047 3.13333 357.093 3.13333 407.14 3.13333C430.26 3.13333 454.406 4.18023 476.252 5.26667C487.988 5.85029 512 22.1974 512 33" stroke="black" stroke-width="2" stroke-linecap="round"/>
<path d="M181.037 11.4059C200.155 11.4059 219.272 11.4059 238.39 11.4059C243.21 11.4059 257.486 9.23896 259.632 13.5301" stroke="black" stroke-width="2" stroke-linecap="round"/>
<path d="M4 26C43.5821 26 83.1642 26 122.746 26C157.447 26 192.148 26 226.849 26C260.813 26 294.25 30 328.023 30C389.349 30 450.674 30 512 30" stroke="black" stroke-width="2" stroke-linecap="round"/>
<path d="M509.76 32C509.76 84.4029 507.007 138.43 511.98 190.261C514.417 215.666 513.965 241.199 513.965 266.957C513.965 274.916 517.355 308.82 511.863 312" stroke="black" stroke-width="2" stroke-linecap="round"/>
<path d="M487.761 15.0702C486.225 15.2622 484.287 17.7747 482.882 18.5552C481.437 19.3578 479.844 21.1377 478.932 22.505" stroke="black" stroke-width="2" stroke-linecap="round"/>
<path d="M476.609 15.0702C480.461 15.0702 485.649 19.6757 487.296 22.9696" stroke="black" stroke-width="2" stroke-linecap="round"/>
<path d="M444.082 19.7169H453.375" stroke="black" stroke-width="2" stroke-linecap="round"/>
<path d="M460.345 14.6055C462.999 14.6055 466.872 13.9192 469.174 15.0702" stroke="black" stroke-width="2" stroke-linecap="round"/>
<path d="M469.174 15.9995V24.3636" stroke="black" stroke-width="2" stroke-linecap="round"/>
<path d="M460.345 24.3636H469.174" stroke="black" stroke-width="2" stroke-linecap="round"/>
<path d="M460.345 15.9995V24.3636" stroke="black" stroke-width="2" stroke-linecap="round"/>
</svg>
