<svg width="163" height="32" viewBox="0 0 163 32" fill="none" xmlns="http://www.w3.org/2000/svg">
<path d="M8.74903 3.26662C33.5885 3.26662 58.5094 2.84441 83.3668 2.84441C100.499 2.84441 117.94 2.42221 135.216 2.42221C139.072 2.42221 142.829 2 146.741 2C148.495 2 150.115 2.34078 151.801 2.42221C152.813 2.47111 155.056 2.36409 155.838 2.93824C157.563 4.20519 160.377 5.22046 160.54 7.91089C160.709 10.7059 160.54 13.5551 160.54 16.355C160.54 18.9743 161 21.7669 161 24.1658C161 25.2569 160.995 26.7184 159.825 27.3324C158.934 27.7995 156.456 28.2181 155.94 28.8101C155.007 29.8809 146.334 29.1576 145.182 29.0212C141.175 28.5466 134.518 27.5395 130.642 28.8101C127.704 29.7733 123.627 28.8712 120.522 29.0212C116.884 29.197 113.117 29.0212 109.483 29.0212C102.834 29.0212 94.8186 27.3482 88.5287 28.9977C85.7291 29.732 81.5964 29.0212 78.6649 29.0212C75.4879 29.0212 72.2725 29.4434 69.0055 29.4434C62.7192 29.4434 56.4329 29.4434 50.1466 29.4434C43.3237 29.4434 36.5007 29.4434 29.6778 29.4434C23.1737 29.4434 16.6217 30.2752 10.3589 28.9977C8.08705 28.5343 4.31159 27.3314 4.14931 24.7991C3.96952 21.9937 2.48391 19.238 2.30942 16.355C2.12091 13.2406 1.40151 10.9028 3.12715 7.91089C4.25332 5.95833 6.92719 3.96477 9.20901 3.26662" stroke="black" stroke-opacity="0.59" stroke-width="3" stroke-linecap="round"/>
</svg>
