<svg width="461" height="416" viewBox="0 0 461 416" fill="none" xmlns="http://www.w3.org/2000/svg">
<path d="M204.14 247.225C198.476 247.225 194.444 244.681 192.044 239.593C189.692 234.505 188.324 227.881 187.94 219.721C187.892 219.001 187.868 217.969 187.868 216.625C187.868 213.889 188.204 211.777 188.876 210.289C189.596 208.753 190.916 207.985 192.836 207.985C193.364 207.985 193.772 208.129 194.06 208.417C194.348 208.657 194.492 208.993 194.492 209.425C194.492 210.337 193.94 211.225 192.836 212.089C192.212 212.089 191.78 212.497 191.54 213.313C191.348 214.129 191.252 215.377 191.252 217.057C191.252 218.593 191.276 219.817 191.324 220.729C191.612 227.881 192.932 233.545 195.284 237.721C197.636 241.849 200.9 243.913 205.076 243.913C207.476 243.913 209.636 243.337 211.556 242.185C213.476 241.033 214.964 239.497 216.02 237.577C217.124 235.609 217.676 233.497 217.676 231.241C217.196 227.305 216.812 224.545 216.524 222.961C216.236 221.377 215.708 218.809 214.94 215.257C214.604 213.865 214.436 212.641 214.436 211.585C214.436 210.481 214.652 209.713 215.084 209.281C215.516 208.849 216.164 208.633 217.028 208.633C217.556 208.633 217.964 208.945 218.252 209.569C218.54 210.193 218.804 211.417 219.044 213.241C219.284 215.065 219.596 218.041 219.98 222.169C220.22 224.521 220.676 226.825 221.348 229.081C222.068 231.337 223.004 233.929 224.156 236.857C224.252 237.145 224.516 237.865 224.948 239.017C225.38 240.121 225.692 241.033 225.884 241.753C226.076 242.473 226.172 243.049 226.172 243.481C226.172 244.585 225.596 245.137 224.444 245.137C224.06 245.137 222.644 242.185 220.196 236.281C219.668 238.441 218.588 240.361 216.956 242.041C215.324 243.673 213.38 244.945 211.124 245.857C208.868 246.769 206.54 247.225 204.14 247.225ZM233.576 251.545C233.048 251.545 232.688 251.353 232.496 250.969C232.352 250.633 232.28 250.081 232.28 249.313C232.28 246.721 233.264 243.865 235.232 240.745C237.248 237.577 239.864 234.025 243.08 230.089C243.944 229.081 244.592 228.265 245.024 227.641L242.576 223.753C240.608 220.681 239.144 218.209 238.184 216.337C237.272 214.465 236.816 212.689 236.816 211.009C236.816 210.385 236.912 209.953 237.104 209.713C237.344 209.473 237.752 209.353 238.328 209.353C238.808 209.353 239.552 210.145 240.56 211.729C241.568 213.265 242.936 215.521 244.664 218.497C245 219.121 245.552 220.105 246.32 221.449C247.136 222.745 247.688 223.513 247.976 223.753C250.232 221.689 252.104 220.105 253.592 219.001C255.08 217.897 257.336 216.385 260.36 214.465C261.56 213.745 262.688 213.121 263.744 212.593C264.848 212.017 265.88 211.729 266.84 211.729C267.896 211.729 268.52 212.233 268.712 213.241C265.496 215.257 262.16 217.657 258.704 220.441C255.248 223.225 252.512 225.889 250.496 228.433C250.928 229.681 251.72 231.121 252.872 232.753C254.024 234.385 255.512 236.353 257.336 238.657C259.112 240.961 260.384 242.689 261.152 243.841C261.92 244.945 262.304 245.809 262.304 246.433C262.304 246.961 261.944 247.225 261.224 247.225C260.84 247.225 260.36 247.153 259.784 247.009C258.44 245.953 257.168 244.681 255.968 243.193C254.768 241.657 253.376 239.737 251.792 237.433C249.392 234.121 247.832 232.057 247.112 231.241C245.096 233.593 242.696 236.833 239.912 240.961L238.328 243.265C237.848 243.985 237.176 245.305 236.312 247.225C235.688 248.617 235.184 249.649 234.8 250.321C234.416 250.993 234.008 251.401 233.576 251.545Z" fill="#3E0EFF"/>
<path d="M183.548 254.353H270.512V257.953H183.548V254.353Z" fill="#3E0EFF"/>
<path d="M32.1043 295.082C30.1377 295.082 28.7377 294.199 27.9043 292.432C27.0877 290.665 26.6127 288.365 26.4793 285.532C26.4627 285.282 26.4543 284.924 26.4543 284.457C26.4543 283.507 26.571 282.774 26.8043 282.257C27.0543 281.724 27.5127 281.457 28.1793 281.457C28.3627 281.457 28.5043 281.507 28.6043 281.607C28.7043 281.69 28.7543 281.807 28.7543 281.957C28.7543 282.274 28.5627 282.582 28.1793 282.882C27.9627 282.882 27.8127 283.024 27.7293 283.307C27.6627 283.59 27.6293 284.024 27.6293 284.607C27.6293 285.14 27.6377 285.565 27.6543 285.882C27.7543 288.365 28.2127 290.332 29.0293 291.782C29.846 293.215 30.9793 293.932 32.4293 293.932C33.2627 293.932 34.0127 293.732 34.6793 293.332C35.346 292.932 35.8627 292.399 36.2293 291.732C36.6127 291.049 36.8043 290.315 36.8043 289.532C36.6377 288.165 36.5043 287.207 36.4043 286.657C36.3043 286.107 36.121 285.215 35.8543 283.982C35.7377 283.499 35.6793 283.074 35.6793 282.707C35.6793 282.324 35.7543 282.057 35.9043 281.907C36.0543 281.757 36.2793 281.682 36.5793 281.682C36.7627 281.682 36.9043 281.79 37.0043 282.007C37.1043 282.224 37.196 282.649 37.2793 283.282C37.3627 283.915 37.471 284.949 37.6043 286.382C37.6877 287.199 37.846 287.999 38.0793 288.782C38.3293 289.565 38.6543 290.465 39.0543 291.482C39.0877 291.582 39.1793 291.832 39.3293 292.232C39.4793 292.615 39.5877 292.932 39.6543 293.182C39.721 293.432 39.7543 293.632 39.7543 293.782C39.7543 294.165 39.5543 294.357 39.1543 294.357C39.021 294.357 38.5293 293.332 37.6793 291.282C37.496 292.032 37.121 292.699 36.5543 293.282C35.9877 293.849 35.3127 294.29 34.5293 294.607C33.746 294.924 32.9377 295.082 32.1043 295.082ZM49.9002 294.107C51.2669 294.107 52.3252 293.915 53.0752 293.532C53.8252 293.149 54.2002 292.59 54.2002 291.857C54.2002 291.207 53.9752 290.649 53.5252 290.182C53.0752 289.699 52.5169 289.29 51.8502 288.957C51.1836 288.624 50.2752 288.232 49.1252 287.782C49.0252 287.749 48.7836 287.657 48.4002 287.507C46.8336 286.874 45.6252 286.24 44.7752 285.607C43.9419 284.974 43.5252 284.157 43.5252 283.157C43.5252 282.04 43.9669 281.199 44.8502 280.632C45.7336 280.065 46.8669 279.782 48.2502 279.782C49.2669 279.782 50.2002 279.915 51.0502 280.182C51.9169 280.432 52.6002 280.782 53.1002 281.232C53.6169 281.682 53.8752 282.19 53.8752 282.757C53.6752 282.857 53.4836 282.907 53.3002 282.907C53.1002 282.907 52.8919 282.865 52.6752 282.782C52.4752 282.682 52.1752 282.524 51.7752 282.307C51.1252 281.957 50.5169 281.682 49.9502 281.482C49.3836 281.265 48.7169 281.157 47.9502 281.157C46.9836 281.157 46.2002 281.324 45.6002 281.657C45.0002 281.99 44.7002 282.457 44.7002 283.057C44.7002 283.524 44.9002 283.949 45.3002 284.332C45.7169 284.715 46.2336 285.057 46.8502 285.357C47.4836 285.64 48.3252 285.982 49.3752 286.382C50.7086 286.899 51.8086 287.382 52.6752 287.832C53.5419 288.282 54.2752 288.857 54.8752 289.557C55.4919 290.24 55.8002 291.057 55.8002 292.007C55.8002 293.124 55.2669 293.99 54.2002 294.607C53.1336 295.207 51.8086 295.507 50.2252 295.507C48.9752 295.507 47.7419 295.324 46.5252 294.957C45.3086 294.59 44.2669 294.049 43.4002 293.332C42.5336 292.599 41.9836 291.724 41.7502 290.707C41.7502 290.257 41.8752 289.874 42.1252 289.557C42.3752 289.224 42.6836 289.057 43.0502 289.057C43.0502 290.14 43.3502 291.065 43.9502 291.832C44.5669 292.582 45.3919 293.149 46.4252 293.532C47.4752 293.915 48.6336 294.107 49.9002 294.107ZM63.2403 295.082C61.857 295.082 60.8486 294.824 60.2153 294.307C59.5986 293.79 59.2903 292.857 59.2903 291.507L59.6403 285.907V280.532C59.6403 280.115 59.7236 279.849 59.8903 279.732C60.0569 279.599 60.4236 279.532 60.9903 279.532L62.6903 279.582C64.8236 279.699 66.907 279.757 68.9403 279.757C69.3736 279.757 69.7153 279.882 69.9653 280.132C70.232 280.382 70.3653 280.724 70.3653 281.157C70.3653 281.24 70.3403 281.307 70.2903 281.357C70.2403 281.407 70.182 281.424 70.1153 281.407L68.9403 280.957L61.1153 281.157C61.0153 281.157 60.957 281.149 60.9403 281.132C61.0069 281.265 61.0403 281.382 61.0403 281.482V285.907C61.8069 285.957 62.5486 285.982 63.2653 285.982C64.4986 285.982 65.857 285.924 67.3403 285.807C67.4903 285.79 67.7153 285.774 68.0153 285.757C68.332 285.724 68.507 285.724 68.5403 285.757C68.6403 285.857 68.7153 285.949 68.7653 286.032C68.8153 286.115 68.8486 286.232 68.8653 286.382C68.9153 286.749 68.357 286.99 67.1903 287.107C66.0403 287.224 64.4986 287.315 62.5653 287.382C61.9153 287.382 61.3736 287.399 60.9403 287.432C60.7403 287.932 60.6403 288.732 60.6403 289.832L60.6653 291.307V292.932C60.9319 293.149 61.2236 293.29 61.5403 293.357C61.857 293.424 62.3736 293.457 63.0903 293.457C63.8403 293.457 64.5736 293.415 65.2903 293.332C66.0236 293.249 66.457 293.199 66.5903 293.182C67.9903 293.015 69.032 292.932 69.7153 292.932C70.1153 292.932 70.3903 292.974 70.5403 293.057C70.707 293.124 70.7903 293.249 70.7903 293.432C70.7903 294.532 68.557 295.082 64.0903 295.082H63.2403ZM85.5514 295.907C85.4347 296.04 85.2681 296.107 85.0514 296.107C84.2681 296.107 83.0181 295.39 81.3014 293.957C79.6014 292.507 78.0931 291.065 76.7764 289.632C76.8597 290.082 77.0181 290.84 77.2514 291.907C77.3514 292.324 77.4347 292.724 77.5014 293.107C77.5847 293.49 77.6264 293.79 77.6264 294.007C77.6264 294.49 77.4514 294.782 77.1014 294.882C77.0181 295.099 76.7931 294.557 76.4264 293.257C76.0764 291.957 75.7431 290.457 75.4264 288.757C75.1264 287.04 74.9764 285.607 74.9764 284.457C74.9764 283.874 75.0264 283.399 75.1264 283.032C75.3431 282.865 75.5264 282.782 75.6764 282.782C75.9764 282.782 76.1847 283.04 76.3014 283.557C76.4181 284.057 76.5264 284.849 76.6264 285.932L76.6764 286.507C77.3264 286.474 78.2097 286.332 79.3264 286.082C80.4597 285.832 81.4681 285.49 82.3514 285.057C83.2514 284.607 83.7014 284.074 83.7014 283.457C83.7014 283.124 83.4597 282.757 82.9764 282.357C82.5097 281.94 81.7847 281.59 80.8014 281.307C79.8347 281.024 78.6431 280.882 77.2264 280.882H76.4264C75.4764 280.882 74.7347 281.04 74.2014 281.357C73.6681 281.657 73.4014 282.307 73.4014 283.307C73.1514 283.307 72.9264 283.149 72.7264 282.832C72.5264 282.515 72.4264 282.224 72.4264 281.957C72.4264 280.924 72.9181 280.249 73.9014 279.932C74.9014 279.615 76.3347 279.457 78.2014 279.457C79.1847 279.457 80.2097 279.615 81.2764 279.932C82.3431 280.249 83.2431 280.749 83.9764 281.432C84.7098 282.099 85.0764 282.932 85.0764 283.932C85.0764 284.615 84.7681 285.182 84.1514 285.632C83.5514 286.082 82.8431 286.432 82.0264 286.682C81.2097 286.932 80.2097 287.19 79.0264 287.457C78.0431 287.674 77.4014 287.832 77.1014 287.932C78.3847 289.665 79.6181 291.015 80.8014 291.982C82.0014 292.949 83.2514 293.824 84.5514 294.607C85.0014 294.874 85.3181 295.074 85.5014 295.207C85.6848 295.34 85.7764 295.465 85.7764 295.582C85.7764 295.699 85.7014 295.807 85.5514 295.907Z" fill="black"/>
<path d="M186.075 67.8753C184.925 67.8753 183.941 67.5587 183.125 66.9253C182.308 66.292 181.683 65.4253 181.25 64.3253C180.833 63.2253 180.625 61.9753 180.625 60.5753C180.625 59.0087 180.991 57.5253 181.725 56.1253C182.458 54.7087 183.416 53.5753 184.6 52.7253C185.8 51.8587 187.041 51.4253 188.325 51.4253C189.408 51.4253 190.241 51.667 190.825 52.1503C191.408 52.6337 191.7 53.2003 191.7 53.8503C191.7 54.2337 191.583 54.5837 191.35 54.9003C191.133 55.217 190.816 55.4587 190.4 55.6253C190.35 55.5253 190.325 55.367 190.325 55.1503C190.325 54.9503 190.35 54.7503 190.4 54.5503C190.433 54.2837 190.45 54.092 190.45 53.9753C190.45 53.8087 190.425 53.667 190.375 53.5503C190.141 52.967 189.508 52.6753 188.475 52.6753C188.191 52.6753 187.858 52.7003 187.475 52.7503C186.591 52.867 185.716 53.3087 184.85 54.0753C183.983 54.8253 183.275 55.767 182.725 56.9003C182.175 58.0337 181.9 59.192 181.9 60.3753C181.9 61.4087 182.066 62.392 182.4 63.3253C182.75 64.242 183.25 64.9837 183.9 65.5503C184.55 66.117 185.325 66.4003 186.225 66.4003C187.391 66.4003 188.358 66.2587 189.125 65.9753C189.908 65.692 190.675 65.2587 191.425 64.6753C191.508 64.6087 191.6 64.5753 191.7 64.5753C191.883 64.5753 192.008 64.6837 192.075 64.9003C192.158 65.3003 191.891 65.7337 191.275 66.2003C190.658 66.667 189.858 67.067 188.875 67.4003C187.891 67.717 186.958 67.8753 186.075 67.8753ZM200.788 67.6253C199.405 67.6253 198.163 67.342 197.063 66.7753C195.98 66.2087 195.13 65.4087 194.513 64.3753C193.897 63.342 193.588 62.1503 193.588 60.8003C193.588 59.8837 193.772 59.042 194.138 58.2753C194.505 57.5087 195.038 56.9003 195.738 56.4503C196.438 55.9837 197.263 55.7503 198.213 55.7503C200.013 55.7503 201.613 56.0587 203.013 56.6753C204.43 57.2753 205.53 58.142 206.313 59.2753C207.113 60.4087 207.513 61.717 207.513 63.2003C207.513 64.1837 207.147 65.0087 206.413 65.6753C205.697 66.342 204.813 66.8337 203.763 67.1503C202.73 67.467 201.738 67.6253 200.788 67.6253ZM200.313 66.3253C201.98 66.3253 203.38 66.0753 204.513 65.5753C205.663 65.0753 206.238 64.242 206.238 63.0753C206.238 61.042 205.455 59.517 203.888 58.5003C202.322 57.467 200.322 56.9503 197.888 56.9503C196.722 56.9503 195.897 57.3003 195.413 58.0003C194.947 58.6837 194.713 59.617 194.713 60.8003C194.713 61.7837 194.947 62.7003 195.413 63.5503C195.897 64.3837 196.563 65.0587 197.413 65.5753C198.263 66.0753 199.23 66.3253 200.313 66.3253ZM220.819 55.1503C221.302 55.1503 221.802 55.6253 222.319 56.5753C222.836 57.5253 223.269 58.617 223.619 59.8503C223.969 61.067 224.144 61.9753 224.144 62.5753C224.144 63.492 223.944 64.317 223.544 65.0503C223.161 65.767 222.611 66.3337 221.894 66.7503C221.177 67.1503 220.361 67.3503 219.444 67.3503C218.177 67.3503 217.077 67.0087 216.144 66.3253C215.227 65.642 214.494 64.8587 213.944 63.9753C213.394 63.0753 212.827 62.0003 212.244 60.7503L211.894 60.0003L211.944 66.0503C211.944 66.417 211.877 66.7753 211.744 67.1253C211.627 67.4587 211.419 67.6253 211.119 67.6253C210.819 67.6253 210.602 67.4587 210.469 67.1253C210.336 66.7753 210.269 66.4337 210.269 66.1003C210.269 65.0337 210.352 63.5003 210.519 61.5003C210.686 59.5003 210.769 58.0087 210.769 57.0253C210.769 56.792 210.752 56.5503 210.719 56.3003C210.686 56.0503 210.661 55.8753 210.644 55.7753C210.561 55.3253 210.519 54.9253 210.519 54.5753V54.4753C210.569 54.4753 210.719 54.442 210.969 54.3753C211.236 54.292 211.394 54.2503 211.444 54.2503H211.694C212.327 57.1003 213.261 59.7337 214.494 62.1503C215.744 64.5503 217.452 65.7503 219.619 65.7503C220.636 65.7503 221.402 65.4503 221.919 64.8503C222.452 64.2337 222.719 63.4087 222.719 62.3753C222.719 61.492 222.577 60.6837 222.294 59.9503C222.011 59.2003 221.586 58.2837 221.019 57.2003L220.344 55.8753C220.294 55.792 220.269 55.7087 220.269 55.6253C220.269 55.492 220.319 55.3837 220.419 55.3003C220.519 55.2003 220.652 55.1503 220.819 55.1503ZM211.944 66.0503V66.0003V66.0503ZM234.364 67.6253C233.897 67.6253 233.572 67.3837 233.389 66.9003C233.206 66.417 233.056 65.767 232.939 64.9503L232.864 64.3253C232.614 62.992 232.414 61.667 232.264 60.3503C232.114 59.017 231.964 57.4087 231.814 55.5253L231.664 53.6753C230.664 53.692 229.239 53.6503 227.389 53.5503L226.889 53.5253C226.656 53.5087 226.489 53.4003 226.389 53.2003C226.306 52.9837 226.264 52.692 226.264 52.3253H227.989C230.889 52.3253 233.506 52.4337 235.839 52.6503C238.172 52.867 239.339 53.3087 239.339 53.9753C239.339 54.1587 239.306 54.2837 239.239 54.3503C239.189 54.417 239.072 54.4503 238.889 54.4503C238.222 54.4003 237.189 54.2587 235.789 54.0253C235.472 53.9753 235.089 53.917 234.639 53.8503C234.189 53.7837 233.681 53.717 233.114 53.6503C233.114 56.067 233.472 59.7837 234.189 64.8003C234.222 65.0503 234.339 65.4087 234.539 65.8753C234.622 66.0753 234.697 66.292 234.764 66.5253C234.847 66.742 234.889 66.942 234.889 67.1253C234.889 67.3587 234.856 67.5003 234.789 67.5503C234.722 67.6003 234.639 67.6253 234.539 67.6253C234.456 67.6253 234.397 67.6253 234.364 67.6253ZM246.42 67.6253C245.037 67.6253 244.029 67.367 243.395 66.8503C242.779 66.3337 242.47 65.4003 242.47 64.0503L242.82 58.4503V53.0753C242.82 52.6587 242.904 52.392 243.07 52.2753C243.237 52.142 243.604 52.0753 244.17 52.0753L245.87 52.1253C248.004 52.242 250.087 52.3003 252.12 52.3003C252.554 52.3003 252.895 52.4253 253.145 52.6753C253.412 52.9253 253.545 53.267 253.545 53.7003C253.545 53.7837 253.52 53.8503 253.47 53.9003C253.42 53.9503 253.362 53.967 253.295 53.9503L252.12 53.5003L244.295 53.7003C244.195 53.7003 244.137 53.692 244.12 53.6753C244.187 53.8087 244.22 53.9253 244.22 54.0253V58.4503C244.987 58.5003 245.729 58.5253 246.445 58.5253C247.679 58.5253 249.037 58.467 250.52 58.3503C250.67 58.3337 250.895 58.317 251.195 58.3003C251.512 58.267 251.687 58.267 251.72 58.3003C251.82 58.4003 251.895 58.492 251.945 58.5753C251.995 58.6587 252.029 58.7753 252.045 58.9253C252.095 59.292 251.537 59.5337 250.37 59.6503C249.22 59.767 247.679 59.8587 245.745 59.9253C245.095 59.9253 244.554 59.942 244.12 59.9753C243.92 60.4753 243.82 61.2753 243.82 62.3753L243.845 63.8503V65.4753C244.112 65.692 244.404 65.8337 244.72 65.9003C245.037 65.967 245.554 66.0003 246.27 66.0003C247.02 66.0003 247.754 65.9587 248.47 65.8753C249.204 65.792 249.637 65.742 249.77 65.7253C251.17 65.5587 252.212 65.4753 252.895 65.4753C253.295 65.4753 253.57 65.517 253.72 65.6003C253.887 65.667 253.97 65.792 253.97 65.9753C253.97 67.0753 251.737 67.6253 247.27 67.6253H246.42ZM256.706 69.1253C256.523 69.1253 256.398 69.0587 256.331 68.9253C256.281 68.8087 256.256 68.617 256.256 68.3503C256.256 67.4503 256.598 66.4587 257.281 65.3753C257.981 64.2753 258.89 63.042 260.006 61.6753C260.306 61.3253 260.531 61.042 260.681 60.8253L259.831 59.4753C259.148 58.4087 258.64 57.5503 258.306 56.9003C257.99 56.2503 257.831 55.6337 257.831 55.0503C257.831 54.8337 257.865 54.6837 257.931 54.6003C258.015 54.517 258.156 54.4753 258.356 54.4753C258.523 54.4753 258.781 54.7503 259.131 55.3003C259.481 55.8337 259.956 56.617 260.556 57.6503C260.673 57.867 260.865 58.2087 261.131 58.6753C261.415 59.1253 261.606 59.392 261.706 59.4753C262.49 58.7587 263.14 58.2087 263.656 57.8253C264.173 57.442 264.956 56.917 266.006 56.2503C266.423 56.0003 266.815 55.7837 267.181 55.6003C267.565 55.4003 267.923 55.3003 268.256 55.3003C268.623 55.3003 268.84 55.4753 268.906 55.8253C267.79 56.5253 266.631 57.3587 265.431 58.3253C264.231 59.292 263.281 60.217 262.581 61.1003C262.731 61.5337 263.006 62.0337 263.406 62.6003C263.806 63.167 264.323 63.8503 264.956 64.6503C265.573 65.4503 266.015 66.0503 266.281 66.4503C266.548 66.8337 266.681 67.1337 266.681 67.3503C266.681 67.5337 266.556 67.6253 266.306 67.6253C266.173 67.6253 266.006 67.6003 265.806 67.5503C265.34 67.1837 264.898 66.742 264.481 66.2253C264.065 65.692 263.581 65.0253 263.031 64.2253C262.198 63.0753 261.656 62.3587 261.406 62.0753C260.706 62.892 259.873 64.017 258.906 65.4503L258.356 66.2503C258.19 66.5003 257.956 66.9587 257.656 67.6253C257.44 68.1087 257.265 68.467 257.131 68.7003C256.998 68.9337 256.856 69.0753 256.706 69.1253ZM278.261 67.6253C277.794 67.6253 277.469 67.3837 277.286 66.9003C277.102 66.417 276.952 65.767 276.836 64.9503L276.761 64.3253C276.511 62.992 276.311 61.667 276.161 60.3503C276.011 59.017 275.861 57.4087 275.711 55.5253L275.561 53.6753C274.561 53.692 273.136 53.6503 271.286 53.5503L270.786 53.5253C270.552 53.5087 270.386 53.4003 270.286 53.2003C270.202 52.9837 270.161 52.692 270.161 52.3253H271.886C274.786 52.3253 277.402 52.4337 279.736 52.6503C282.069 52.867 283.236 53.3087 283.236 53.9753C283.236 54.1587 283.202 54.2837 283.136 54.3503C283.086 54.417 282.969 54.4503 282.786 54.4503C282.119 54.4003 281.086 54.2587 279.686 54.0253C279.369 53.9753 278.986 53.917 278.536 53.8503C278.086 53.7837 277.577 53.717 277.011 53.6503C277.011 56.067 277.369 59.7837 278.086 64.8003C278.119 65.0503 278.236 65.4087 278.436 65.8753C278.519 66.0753 278.594 66.292 278.661 66.5253C278.744 66.742 278.786 66.942 278.786 67.1253C278.786 67.3587 278.752 67.5003 278.686 67.5503C278.619 67.6003 278.536 67.6253 278.436 67.6253C278.352 67.6253 278.294 67.6253 278.261 67.6253Z" fill="black"/>
<path d="M317.903 319.148C319.27 319.148 320.328 318.956 321.078 318.573C321.828 318.19 322.203 317.631 322.203 316.898C322.203 316.248 321.978 315.69 321.528 315.223C321.078 314.74 320.52 314.331 319.853 313.998C319.187 313.665 318.278 313.273 317.128 312.823C317.028 312.79 316.787 312.698 316.403 312.548C314.837 311.915 313.628 311.281 312.778 310.648C311.945 310.015 311.528 309.198 311.528 308.198C311.528 307.081 311.97 306.24 312.853 305.673C313.737 305.106 314.87 304.823 316.253 304.823C317.27 304.823 318.203 304.956 319.053 305.223C319.92 305.473 320.603 305.823 321.103 306.273C321.62 306.723 321.878 307.231 321.878 307.798C321.678 307.898 321.487 307.948 321.303 307.948C321.103 307.948 320.895 307.906 320.678 307.823C320.478 307.723 320.178 307.565 319.778 307.348C319.128 306.998 318.52 306.723 317.953 306.523C317.387 306.306 316.72 306.198 315.953 306.198C314.987 306.198 314.203 306.365 313.603 306.698C313.003 307.031 312.703 307.498 312.703 308.098C312.703 308.565 312.903 308.99 313.303 309.373C313.72 309.756 314.237 310.098 314.853 310.398C315.487 310.681 316.328 311.023 317.378 311.423C318.712 311.94 319.812 312.423 320.678 312.873C321.545 313.323 322.278 313.898 322.878 314.598C323.495 315.281 323.803 316.098 323.803 317.048C323.803 318.165 323.27 319.031 322.203 319.648C321.137 320.248 319.812 320.548 318.228 320.548C316.978 320.548 315.745 320.365 314.528 319.998C313.312 319.631 312.27 319.09 311.403 318.373C310.537 317.64 309.987 316.765 309.753 315.748C309.753 315.298 309.878 314.915 310.128 314.598C310.378 314.265 310.687 314.098 311.053 314.098C311.053 315.181 311.353 316.106 311.953 316.873C312.57 317.623 313.395 318.19 314.428 318.573C315.478 318.956 316.637 319.148 317.903 319.148ZM334.668 305.723C334.668 305.64 334.768 305.565 334.968 305.498C335.168 305.415 335.36 305.373 335.543 305.373C335.677 305.373 335.777 305.406 335.843 305.473C335.91 305.523 335.91 305.606 335.843 305.723C335.71 305.99 335.41 306.556 334.943 307.423C334.243 308.723 333.685 309.856 333.268 310.823C332.852 311.79 332.493 312.965 332.193 314.348C331.893 315.731 331.743 317.315 331.743 319.098L331.768 320.523C331.768 320.69 331.693 320.815 331.543 320.898C331.41 320.981 331.235 321.023 331.018 321.023C330.852 321.023 330.743 320.998 330.693 320.948C330.66 320.898 330.643 320.823 330.643 320.723C330.643 320.623 330.643 320.548 330.643 320.498C330.593 319.848 330.568 319.231 330.568 318.648C330.568 317.331 330.685 316.073 330.918 314.873C329.918 313.64 329.102 312.59 328.468 311.723C327.852 310.84 327.268 309.865 326.718 308.798C326.168 307.731 325.652 306.498 325.168 305.098C325.202 305.115 325.368 305.106 325.668 305.073C325.968 305.04 326.135 305.023 326.168 305.023L326.968 306.548C327.918 308.348 328.677 309.723 329.243 310.673C329.81 311.606 330.477 312.515 331.243 313.398C331.593 312.065 332.018 310.865 332.518 309.798C333.035 308.715 333.643 307.548 334.343 306.298L334.668 305.723ZM345.418 319.148C346.785 319.148 347.843 318.956 348.593 318.573C349.343 318.19 349.718 317.631 349.718 316.898C349.718 316.248 349.493 315.69 349.043 315.223C348.593 314.74 348.035 314.331 347.368 313.998C346.701 313.665 345.793 313.273 344.643 312.823C344.543 312.79 344.301 312.698 343.918 312.548C342.351 311.915 341.143 311.281 340.293 310.648C339.46 310.015 339.043 309.198 339.043 308.198C339.043 307.081 339.485 306.24 340.368 305.673C341.251 305.106 342.385 304.823 343.768 304.823C344.785 304.823 345.718 304.956 346.568 305.223C347.435 305.473 348.118 305.823 348.618 306.273C349.135 306.723 349.393 307.231 349.393 307.798C349.193 307.898 349.001 307.948 348.818 307.948C348.618 307.948 348.41 307.906 348.193 307.823C347.993 307.723 347.693 307.565 347.293 307.348C346.643 306.998 346.035 306.723 345.468 306.523C344.901 306.306 344.235 306.198 343.468 306.198C342.501 306.198 341.718 306.365 341.118 306.698C340.518 307.031 340.218 307.498 340.218 308.098C340.218 308.565 340.418 308.99 340.818 309.373C341.235 309.756 341.751 310.098 342.368 310.398C343.001 310.681 343.843 311.023 344.893 311.423C346.226 311.94 347.326 312.423 348.193 312.873C349.06 313.323 349.793 313.898 350.393 314.598C351.01 315.281 351.318 316.098 351.318 317.048C351.318 318.165 350.785 319.031 349.718 319.648C348.651 320.248 347.326 320.548 345.743 320.548C344.493 320.548 343.26 320.365 342.043 319.998C340.826 319.631 339.785 319.09 338.918 318.373C338.051 317.64 337.501 316.765 337.268 315.748C337.268 315.298 337.393 314.915 337.643 314.598C337.893 314.265 338.201 314.098 338.568 314.098C338.568 315.181 338.868 316.106 339.468 316.873C340.085 317.623 340.91 318.19 341.943 318.573C342.993 318.956 344.151 319.148 345.418 319.148ZM361.033 320.123C360.566 320.123 360.241 319.881 360.058 319.398C359.875 318.915 359.725 318.265 359.608 317.448L359.533 316.823C359.283 315.49 359.083 314.165 358.933 312.848C358.783 311.515 358.633 309.906 358.483 308.023L358.333 306.173C357.333 306.19 355.908 306.148 354.058 306.048L353.558 306.023C353.325 306.006 353.158 305.898 353.058 305.698C352.975 305.481 352.933 305.19 352.933 304.823H354.658C357.558 304.823 360.175 304.931 362.508 305.148C364.841 305.365 366.008 305.806 366.008 306.473C366.008 306.656 365.975 306.781 365.908 306.848C365.858 306.915 365.741 306.948 365.558 306.948C364.891 306.898 363.858 306.756 362.458 306.523C362.141 306.473 361.758 306.415 361.308 306.348C360.858 306.281 360.35 306.215 359.783 306.148C359.783 308.565 360.141 312.281 360.858 317.298C360.891 317.548 361.008 317.906 361.208 318.373C361.291 318.573 361.366 318.79 361.433 319.023C361.516 319.24 361.558 319.44 361.558 319.623C361.558 319.856 361.525 319.998 361.458 320.048C361.391 320.098 361.308 320.123 361.208 320.123C361.125 320.123 361.066 320.123 361.033 320.123ZM373.089 320.123C371.706 320.123 370.697 319.865 370.064 319.348C369.447 318.831 369.139 317.898 369.139 316.548L369.489 310.948V305.573C369.489 305.156 369.572 304.89 369.739 304.773C369.906 304.64 370.272 304.573 370.839 304.573L372.539 304.623C374.672 304.74 376.756 304.798 378.789 304.798C379.222 304.798 379.564 304.923 379.814 305.173C380.081 305.423 380.214 305.765 380.214 306.198C380.214 306.281 380.189 306.348 380.139 306.398C380.089 306.448 380.031 306.465 379.964 306.448L378.789 305.998L370.964 306.198C370.864 306.198 370.806 306.19 370.789 306.173C370.856 306.306 370.889 306.423 370.889 306.523V310.948C371.656 310.998 372.397 311.023 373.114 311.023C374.347 311.023 375.706 310.965 377.189 310.848C377.339 310.831 377.564 310.815 377.864 310.798C378.181 310.765 378.356 310.765 378.389 310.798C378.489 310.898 378.564 310.99 378.614 311.073C378.664 311.156 378.697 311.273 378.714 311.423C378.764 311.79 378.206 312.031 377.039 312.148C375.889 312.265 374.347 312.356 372.414 312.423C371.764 312.423 371.222 312.44 370.789 312.473C370.589 312.973 370.489 313.773 370.489 314.873L370.514 316.348V317.973C370.781 318.19 371.072 318.331 371.389 318.398C371.706 318.465 372.222 318.498 372.939 318.498C373.689 318.498 374.422 318.456 375.139 318.373C375.872 318.29 376.306 318.24 376.439 318.223C377.839 318.056 378.881 317.973 379.564 317.973C379.964 317.973 380.239 318.015 380.389 318.098C380.556 318.165 380.639 318.29 380.639 318.473C380.639 319.573 378.406 320.123 373.939 320.123H373.089ZM394.525 309.798C394.525 310.515 394.559 311.215 394.625 311.898C394.709 312.565 394.834 313.506 395 314.723C395.317 316.773 395.475 318.406 395.475 319.623C395.475 319.873 395.425 320.023 395.325 320.073C395.225 320.123 395.109 320.148 394.975 320.148C394.842 320.148 394.75 320.148 394.7 320.148C394.467 320.148 394.284 320.123 394.15 320.073C394.017 320.006 393.909 319.856 393.825 319.623L393.3 312.823C393.25 312.14 393.184 310.765 393.1 308.698C392.384 309.531 391.675 310.165 390.975 310.598C390.275 311.015 389.559 311.223 388.825 311.223C387.775 311.223 386.725 310.481 385.675 308.998C385.725 309.248 385.75 309.581 385.75 309.998C385.75 310.415 385.75 310.656 385.75 310.723L385.725 318.898C385.725 319.065 385.634 319.198 385.45 319.298C385.284 319.381 385.109 319.423 384.925 319.423C384.692 319.423 384.525 319.34 384.425 319.173C384.342 318.99 384.275 318.748 384.225 318.448V314.948C384.225 314.415 384.242 313.815 384.275 313.148C384.309 312.481 384.334 312.015 384.35 311.748C384.434 310.581 384.475 309.523 384.475 308.573C384.475 308.29 384.425 308.023 384.325 307.773C384.225 307.506 384.075 307.215 383.875 306.898C383.675 306.581 383.525 306.306 383.425 306.073C383.342 305.84 383.3 305.59 383.3 305.323C383.3 305.006 383.459 304.848 383.775 304.848C384.275 304.848 384.684 305.031 385 305.398C385.317 305.748 385.659 306.281 386.025 306.998C386.342 307.581 386.617 308.04 386.85 308.373C387.084 308.706 387.384 308.998 387.75 309.248C388.117 309.481 388.559 309.598 389.075 309.598C389.825 309.631 390.442 309.49 390.925 309.173C391.409 308.84 391.775 308.44 392.025 307.973C392.275 307.506 392.517 306.94 392.75 306.273C392.95 305.723 393.125 305.34 393.275 305.123C393.425 304.89 393.609 304.798 393.825 304.848C394.325 304.815 394.575 305.273 394.575 306.223C394.575 307.023 394.567 307.615 394.55 307.998L394.525 309.798Z" fill="black"/>
<path d="M321.46 398.413C295.484 398.413 274.324 386.217 255.364 368.684C237.973 352.602 221.011 333.977 205.028 316.44C196.764 307.373 185.583 295.946 181.532 284.016C173.796 261.239 175.323 236.741 175.323 213.107C175.323 183.178 182.156 160.466 207.225 142.198C234.326 122.45 271.406 122.311 303.408 123.148C332.864 123.919 362.985 139.299 387.46 155.187C423.566 178.626 444.779 219.607 452.983 260.925C457.84 285.39 459 310.779 459 335.683C459 349.03 444.658 360.017 436.65 369.357C421.076 387.521 397.409 399.477 375.139 406.688C367.372 409.203 359.299 414 351.069 414C345.211 414 339.353 414 333.495 414C322.445 414 315.453 403.324 305.987 400.145" stroke="black" stroke-width="3" stroke-linecap="round"/>
<path d="M322.525 285.074C291.514 285.074 260.409 285.846 229.413 284.984C187.854 283.827 149.094 258.678 120.722 229.903C101.183 210.086 86.0729 179.385 80.5969 151.954C78.2402 140.149 79.6006 127.188 79.6006 115.204C79.6006 102.637 80.5616 91.8595 88.1147 81.2657C95.1442 71.4063 105.469 63.5504 113.748 54.7688C122.614 45.3637 130.008 36.4404 141.645 30.2682C159.962 20.5531 180.131 11.086 200.247 5.76759C247.484 -6.72071 296.585 11.6492 329.046 48.2353C344.57 65.7313 356.998 84.5296 364.552 106.674C369.923 122.417 376.625 140.066 377.867 156.855C378.886 170.648 380.083 184.233 379.587 198.143C379.334 205.264 369.746 221.277 365.729 227.09C360.738 234.312 355.134 241.424 350.241 248.777C346.786 253.969 339.67 257.452 337.198 263.024C332.034 274.664 317.76 278.414 309.482 286.708" stroke="black" stroke-width="3" stroke-linecap="round"/>
<path d="M240.246 396.638C209.881 396.638 179.424 397.447 149.074 396.543C108.381 395.331 70.4277 368.984 42.6472 338.839C23.5154 318.079 8.71999 285.916 3.35805 257.179C1.05043 244.812 2.38248 231.234 2.38248 218.678C2.38248 205.513 3.32351 194.223 10.7192 183.124C17.6022 172.795 27.7121 164.565 35.8181 155.366C44.4996 145.513 51.7396 136.164 63.1343 129.698C81.0696 119.521 100.818 109.603 120.516 104.031C166.769 90.9481 214.847 110.193 246.631 148.521C261.831 166.85 274 186.544 281.397 209.742C286.656 226.235 293.219 244.725 294.435 262.313C295.433 276.763 296.605 290.995 296.12 305.567C295.871 313.027 286.483 329.803 282.55 335.892C277.663 343.459 272.175 350.91 267.384 358.613C264.002 364.051 257.033 367.701 254.613 373.538C249.557 385.732 235.58 389.661 227.475 398.349" stroke="black" stroke-width="3" stroke-linecap="round"/>
</svg>
