<svg xmlns="http://www.w3.org/2000/svg" width="1435" height="7" viewBox="0 0 1435 7" fill="none">
  <g filter="url(#filter0_i_631_459)">
    <path d="M1 1C99.0873 1 198.298 1 297.278 1C348.085 1 398.892 1 449.698 1C472.247 1 494.797 1 517.346 1C529.138 1 541.152 1.98854 552.454 1.98854C565.324 1.98854 577.66 3.96563 590.131 3.96563C613.251 3.96563 636.371 3.96563 659.491 3.96563C671.193 3.96563 682.896 3.96563 694.599 3.96563C701.825 3.96563 708.33 4.51679 715.15 4.95418C722.065 5.39769 727.963 4.95418 735.32 4.95418C749.401 4.95418 764.882 5.25989 778.515 3.47136C791.703 1.74127 818.179 -0.285198 831.606 2.48282C848.998 6.06829 871.644 1.41275 889.834 3.74596C901.551 5.24896 914.367 2.91681 926.179 4.18531C934.556 5.08493 945.106 6.63306 953.58 5.72304C971.69 3.77825 991.293 4.95418 1009.72 4.95418C1036.19 4.95418 1062.17 4.19673 1088.4 3.03201C1134.31 0.993337 1181.1 3.96563 1226.83 3.96563C1299.04 3.96563 1371.18 2.97709 1443 2.97709" stroke="black" stroke-opacity="0.2" stroke-width="2" stroke-linecap="round" stroke-linejoin="round"/>
  </g>
  <defs>
    <filter id="filter0_i_631_459" x="0" y="0" width="1444" height="10.9993" filterUnits="userSpaceOnUse" color-interpolation-filters="sRGB">
      <feFlood flood-opacity="0" result="BackgroundImageFix"/>
      <feBlend mode="normal" in="SourceGraphic" in2="BackgroundImageFix" result="shape"/>
      <feColorMatrix in="SourceAlpha" type="matrix" values="0 0 0 0 0 0 0 0 0 0 0 0 0 0 0 0 0 0 127 0" result="hardAlpha"/>
      <feOffset dy="4"/>
      <feGaussianBlur stdDeviation="2"/>
      <feComposite in2="hardAlpha" operator="arithmetic" k2="-1" k3="1"/>
      <feColorMatrix type="matrix" values="0 0 0 0 0 0 0 0 0 0 0 0 0 0 0 0 0 0 0.25 0"/>
      <feBlend mode="normal" in2="shape" result="effect1_innerShadow_631_459"/>
    </filter>
  </defs>
</svg>