<svg width="150" height="46" viewBox="0 0 150 46" fill="none" xmlns="http://www.w3.org/2000/svg">
<path d="M8.19723 3.91984C31.0058 3.91984 53.8892 3.2799 76.7142 3.2799C92.4457 3.2799 108.46 2.63995 124.324 2.63995C127.865 2.63995 131.315 2 134.907 2C136.518 2 138.005 2.51653 139.553 2.63995C140.482 2.71407 142.542 2.55187 143.26 3.42211C144.844 5.34246 147.428 6.88133 147.578 10.9593C147.733 15.1957 147.578 19.5143 147.578 23.7582C147.578 27.7283 148 31.9611 148 35.5973C148 37.251 147.995 39.4663 146.921 40.3969C146.103 41.1049 143.828 41.7394 143.354 42.6367C142.497 44.2597 134.533 43.1634 133.475 42.9567C129.796 42.2373 123.683 40.7109 120.124 42.6367C117.426 44.0966 113.683 42.7293 110.832 42.9567C107.491 43.2231 104.032 42.9567 100.695 42.9567C94.5896 42.9567 87.2297 40.4208 81.4541 42.9211C78.8833 44.034 75.0885 42.9567 72.3967 42.9567C69.4794 42.9567 66.527 43.5966 63.527 43.5966C57.7547 43.5966 51.9824 43.5966 46.2101 43.5966C39.945 43.5966 33.6799 43.5966 27.4148 43.5966C21.4425 43.5966 15.4262 44.8574 9.6755 42.9211C7.58937 42.2187 4.12259 40.3954 3.97358 36.5572C3.80849 32.3049 2.44435 28.1281 2.28412 23.7582C2.11103 19.0376 1.45044 15.4942 3.03499 10.9593C4.06908 7.99973 6.52434 4.97805 8.61959 3.91984" stroke="black" stroke-opacity="0.59" stroke-width="3" stroke-linecap="round"/>
</svg>
